<svg xmlns="http://www.w3.org/2000/svg" xmlns:xlink="http://www.w3.org/1999/xlink" width="210" height="210" version="1.1" viewBox="0 0 210 210"><title>Logo Square</title><desc>Created with Sketch.</desc><g id="Page-1" fill="none" fill-rule="evenodd" stroke="none" stroke-width="1"><g id="Logo-+-Name" fill="#494949" transform="translate(4.000000, 22.000000)"><g id="Coursebase-1" transform="translate(1.000000, 0.500000)"><g id="Logo" transform="translate(-0.360000, 0.500000)"><path id="Lower" d="M184.217115,92.1662682 L200.332294,102.157679 L200.36,102.157679 L200.346147,102.166268 L200.36,102.174857 L200.332294,102.174857 L100.36,164.157679 L0.387705601,102.174857 L0.387705601,102.174857 L0.36,102.174857 L0.373852801,102.166268 L0.36,102.157679 L0.387705601,102.157679 L16.5028851,92.1662682 L100.36,144.157679 L184.217115,92.1662682 L184.217115,92.1662682 L184.217115,92.1662682 Z"/><path id="Upper" d="M100.36,124.174857 L0.36,62.1748569 L200.36,62.1748569 L100.36,124.174857 L100.36,124.174857 Z M100.36,0.174856891 L200.36,62.1748569 L0.36,62.1748569 L100.36,0.174856891 L100.36,0.174856891 Z M100.36,100.174857 L38.36,62.1748569 L162.36,62.1748569 L100.36,100.174857 L100.36,100.174857 Z M100.36,24.1748569 L162.36,62.1748569 L38.36,62.1748569 L100.36,24.1748569 L100.36,24.1748569 Z"/></g></g></g></g></svg>